<svg width="378" height="84" viewBox="0 0 378 84" fill="none" xmlns="http://www.w3.org/2000/svg">
<rect width="378" height="84" rx="14" fill="#111827"/>
<path d="M37.225 35.77L36.945 44.1C36.945 46.97 37.1783 49.385 37.645 51.345C38.135 53.305 39.0333 54.6583 40.34 55.405C38.73 56.4083 37.0967 56.91 35.44 56.91C32.5233 56.91 30.7267 54.5533 30.05 49.84H22.91C22.4667 51.3567 22.245 52.5233 22.245 53.34C22.245 54.1333 22.3383 54.775 22.525 55.265C20.7983 56.3617 19.2583 56.91 17.905 56.91C15.8283 56.91 14.79 55.65 14.79 53.13C14.79 51.87 15.175 50.2833 15.945 48.37C16.7383 46.4567 17.7767 44.2633 19.06 41.79C20.3667 39.3167 21.195 37.6833 21.545 36.89C21.2883 35.63 20.9967 34.3933 20.67 33.18C21.8833 32.34 23.05 31.71 24.17 31.29C25.3133 30.8467 26.5383 30.625 27.845 30.625C29.175 30.625 30.0967 30.9167 30.61 31.5C31.94 30.9167 33.0367 30.625 33.9 30.625C34.7633 30.625 35.405 30.765 35.825 31.045C36.245 31.325 36.5483 31.7333 36.735 32.27C37.0617 33.2033 37.225 34.37 37.225 35.77ZM30.19 36.575H29.07C26.97 40.635 25.4067 43.8317 24.38 46.165H29.805C29.805 43.6217 29.9333 40.425 30.19 36.575ZM50.368 48.335C50.228 49.175 50.158 49.8167 50.158 50.26C50.158 52.5233 50.508 54.215 51.208 55.335C49.808 56.385 48.3497 56.91 46.833 56.91C45.3164 56.91 44.2314 56.4783 43.578 55.615C42.9247 54.7283 42.598 53.4217 42.598 51.695C42.598 49.945 43.333 45.01 44.803 36.89L42.948 33.145C45.5847 31.4417 47.988 30.59 50.158 30.59C50.7647 30.59 51.4297 30.7067 52.153 30.94C52.8764 31.15 53.3897 31.395 53.693 31.675C55.4197 30.9983 57.018 30.66 58.488 30.66C60.6814 30.66 62.408 31.43 63.668 32.97C64.9514 34.4867 65.593 36.33 65.593 38.5C65.593 41.1133 64.648 43.4467 62.758 45.5C61.848 46.5033 60.623 47.3083 59.083 47.915C57.543 48.5217 55.968 48.825 54.358 48.825C52.7714 48.825 51.4414 48.6617 50.368 48.335ZM51.033 44.345C51.3597 44.415 51.698 44.45 52.048 44.45C53.5414 44.45 54.8714 43.925 56.038 42.875C57.2047 41.825 57.788 40.53 57.788 38.99C57.788 37.9167 57.473 37.0067 56.843 36.26C56.2364 35.5133 55.373 35.14 54.253 35.14C53.7864 35.14 53.2497 35.2333 52.643 35.42C52.1764 38.6167 51.6397 41.5917 51.033 44.345ZM72.0959 56.91C70.5793 56.91 69.4943 56.4783 68.8409 55.615C68.1876 54.7283 67.8609 53.4217 67.8609 51.695C67.8609 49.945 68.5959 45.01 70.0659 36.89L68.2109 33.145C70.8476 31.4417 73.2509 30.59 75.4209 30.59C77.2176 30.59 78.1159 31.6867 78.1159 33.88C78.1159 34.6033 77.6609 37.2983 76.7509 41.965C75.8643 46.6083 75.4209 49.3733 75.4209 50.26C75.4209 52.5233 75.7709 54.215 76.4709 55.335C75.0709 56.385 73.6126 56.91 72.0959 56.91ZM83.2853 49.595C81.8153 49.595 81.0803 48.7433 81.0803 47.04C81.0803 45.8033 81.4069 44.4733 82.0603 43.05C82.5503 43.2133 83.2619 43.295 84.1953 43.295C85.1519 43.295 86.6686 42.9217 88.7453 42.175C90.8453 41.4283 92.4319 41.055 93.5053 41.055C94.9753 41.055 95.7103 41.9067 95.7103 43.61C95.7103 44.8467 95.3836 46.1767 94.7303 47.6C94.2403 47.4367 93.5169 47.355 92.5603 47.355C91.6269 47.355 90.1103 47.7283 88.0103 48.475C85.9336 49.2217 84.3586 49.595 83.2853 49.595ZM103.981 56.91C102.465 56.91 101.38 56.4783 100.726 55.615C100.073 54.7283 99.7465 53.4217 99.7465 51.695C99.7465 49.945 100.481 45.01 101.951 36.89L100.096 33.145C102.733 31.4417 105.136 30.59 107.306 30.59C108.683 30.59 109.535 31.2433 109.861 32.55C112.241 32.48 115.415 31.885 119.381 30.765C119.568 31.815 119.661 32.7017 119.661 33.425C119.661 34.9183 119.09 36.0967 117.946 36.96C116.826 37.8 115.52 38.22 114.026 38.22C112.533 38.22 111.04 37.8583 109.546 37.135C109.546 37.135 109.441 37.7067 109.231 38.85C109.068 39.76 108.8 41.1483 108.426 43.015C109.22 43.2017 109.966 43.295 110.666 43.295C111.623 43.1083 112.673 42.84 113.816 42.49C113.933 42.8867 113.991 43.54 113.991 44.45C113.991 45.3367 113.63 46.0483 112.906 46.585C112.183 47.1217 111.366 47.39 110.456 47.39C109.546 47.39 108.625 47.285 107.691 47.075C107.435 48.545 107.306 49.6067 107.306 50.26C107.306 52.5233 107.656 54.215 108.356 55.335C106.956 56.385 105.498 56.91 103.981 56.91ZM131.487 29.47C131.487 30.3567 131.02 31.1267 130.087 31.78C129.154 32.41 128.092 32.725 126.902 32.725C125.712 32.725 124.767 32.4917 124.067 32.025C123.39 31.5583 123.052 30.9283 123.052 30.135C123.052 29.0617 123.554 28.2217 124.557 27.615C125.56 27.0083 126.622 26.705 127.742 26.705C128.862 26.705 129.76 26.9383 130.437 27.405C131.137 27.8717 131.487 28.56 131.487 29.47ZM124.662 56.875C123.215 56.875 122.165 56.5133 121.512 55.79C120.859 55.0667 120.532 53.97 120.532 52.5C120.532 51.0067 121.279 47.0283 122.772 40.565L120.812 37.625C123.729 35.875 126.027 35 127.707 35C128.664 35 129.34 35.21 129.737 35.63C130.134 36.0267 130.332 36.68 130.332 37.59C130.332 37.94 129.9 39.9933 129.037 43.75C128.174 47.5067 127.742 50.19 127.742 51.8C127.742 53.41 128.104 54.53 128.827 55.16C127.52 56.3033 126.132 56.875 124.662 56.875ZM137.776 56.875C136.4 56.875 135.385 56.5133 134.731 55.79C134.078 55.0667 133.751 54.11 133.751 52.92C133.751 51.73 133.985 49.7933 134.451 47.11C134.941 44.4267 135.443 41.9767 135.956 39.76L134.136 36.96C136.446 35.6533 138.581 35 140.541 35C142.501 35 143.481 35.8867 143.481 37.66C143.481 38.8267 143.213 40.0167 142.676 41.23L143.026 41.405C145.523 37.135 148.696 35 152.546 35C155.37 35 156.781 36.4117 156.781 39.235C156.781 40.4483 156.431 42.5017 155.731 45.395C155.055 48.2883 154.716 50.47 154.716 51.94C154.716 53.41 154.961 54.4833 155.451 55.16C154.215 56.3033 152.908 56.875 151.531 56.875C148.848 56.875 147.506 55.4283 147.506 52.535C147.506 51.4617 147.856 49.6417 148.556 47.075C149.256 44.5083 149.606 42.84 149.606 42.07C149.606 41.02 149.21 40.495 148.416 40.495C147.763 40.495 147.016 40.7867 146.176 41.37C145.336 41.93 144.52 42.7 143.726 43.68C142.956 44.6367 142.303 45.8617 141.766 47.355C141.23 48.825 140.961 50.33 140.961 51.87C140.961 53.3867 141.206 54.4833 141.696 55.16C140.46 56.3033 139.153 56.875 137.776 56.875ZM173.47 53.445L173.12 53.27C171.3 55.6733 169.13 56.875 166.61 56.875C164.743 56.875 163.156 56.14 161.85 54.67C160.566 53.1767 159.925 51.17 159.925 48.65C159.925 45.5233 161.021 42.6767 163.215 40.11C164.288 38.85 165.723 37.835 167.52 37.065C169.316 36.2717 171.323 35.875 173.54 35.875C173.96 35.875 174.706 35.9217 175.78 36.015C175.826 35.525 175.931 34.93 176.095 34.23L174.135 31.43C177.051 29.7267 179.35 28.875 181.03 28.875C181.986 28.875 182.663 29.0733 183.06 29.47C183.456 29.8433 183.655 30.5667 183.655 31.64C183.655 32.69 183.13 35.6767 182.08 40.6C181.053 45.5233 180.54 49.0233 180.54 51.1C180.54 53.1533 180.901 54.5067 181.625 55.16C180.318 56.3033 178.953 56.875 177.53 56.875C176.13 56.875 175.103 56.525 174.45 55.825C173.796 55.1017 173.47 54.3083 173.47 53.445ZM166.505 47.32C166.505 48.65 166.843 49.7 167.52 50.47C168.22 51.24 169.083 51.625 170.11 51.625C171.44 51.625 172.653 50.995 173.75 49.735C174.123 45.5817 174.648 41.9883 175.325 38.955C172.641 38.955 170.495 39.8183 168.885 41.545C167.298 43.2717 166.505 45.1967 166.505 47.32ZM217.249 35.77L216.969 44.1C216.969 46.97 217.203 49.385 217.669 51.345C218.159 53.305 219.058 54.6583 220.364 55.405C218.754 56.4083 217.121 56.91 215.464 56.91C212.548 56.91 210.751 54.5533 210.074 49.84H202.934C202.491 51.3567 202.269 52.5233 202.269 53.34C202.269 54.1333 202.363 54.775 202.549 55.265C200.823 56.3617 199.283 56.91 197.929 56.91C195.853 56.91 194.814 55.65 194.814 53.13C194.814 51.87 195.199 50.2833 195.969 48.37C196.763 46.4567 197.801 44.2633 199.084 41.79C200.391 39.3167 201.219 37.6833 201.569 36.89C201.313 35.63 201.021 34.3933 200.694 33.18C201.908 32.34 203.074 31.71 204.194 31.29C205.338 30.8467 206.563 30.625 207.869 30.625C209.199 30.625 210.121 30.9167 210.634 31.5C211.964 30.9167 213.061 30.625 213.924 30.625C214.788 30.625 215.429 30.765 215.849 31.045C216.269 31.325 216.573 31.7333 216.759 32.27C217.086 33.2033 217.249 34.37 217.249 35.77ZM210.214 36.575H209.094C206.994 40.635 205.431 43.8317 204.404 46.165H209.829C209.829 43.6217 209.958 40.425 210.214 36.575ZM237.351 56.91C235.834 56.91 234.749 56.4783 234.096 55.615C233.442 54.7283 233.116 53.4217 233.116 51.695C233.116 49.945 233.851 45.01 235.321 36.89L233.466 33.145C236.102 31.4417 238.506 30.59 240.676 30.59C242.052 30.59 242.904 31.2433 243.231 32.55C245.611 32.48 248.784 31.885 252.751 30.765C252.937 31.815 253.031 32.7017 253.031 33.425C253.031 34.9183 252.459 36.0967 251.316 36.96C250.196 37.8 248.889 38.22 247.396 38.22C245.902 38.22 244.409 37.8583 242.916 37.135C242.916 37.135 242.811 37.7067 242.601 38.85C242.437 39.76 242.169 41.1483 241.796 43.015C242.589 43.2017 243.336 43.295 244.036 43.295C244.992 43.1083 246.042 42.84 247.186 42.49C247.302 42.8867 247.361 43.54 247.361 44.45C247.361 45.3367 246.999 46.0483 246.276 46.585C245.552 47.1217 244.736 47.39 243.826 47.39C242.916 47.39 241.994 47.285 241.061 47.075C240.804 48.545 240.676 49.6067 240.676 50.26C240.676 52.5233 241.026 54.215 241.726 55.335C240.326 56.385 238.867 56.91 237.351 56.91ZM253.551 52.535C253.551 51.6017 253.784 49.7933 254.251 47.11C254.741 44.4267 255.243 41.9767 255.756 39.76L253.936 36.96C256.853 35.6533 258.894 35 260.061 35C261.251 35 261.846 35.7467 261.846 37.24C261.846 38.0567 261.461 39.76 260.691 42.35L261.041 42.525C262.721 37.5083 264.809 35 267.306 35C268.449 35 269.324 35.35 269.931 36.05C270.538 36.75 270.841 37.5317 270.841 38.395C270.841 39.6783 270.363 40.775 269.406 41.685C268.449 42.595 267.014 43.05 265.101 43.05C262.208 43.05 260.761 46.025 260.761 51.975C260.761 53.4217 261.006 54.4833 261.496 55.16C260.049 56.3033 258.719 56.875 257.506 56.875C254.869 56.875 253.551 55.4283 253.551 52.535ZM283.381 29.47C283.381 30.3567 282.915 31.1267 281.981 31.78C281.048 32.41 279.986 32.725 278.796 32.725C277.606 32.725 276.661 32.4917 275.961 32.025C275.285 31.5583 274.946 30.9283 274.946 30.135C274.946 29.0617 275.448 28.2217 276.451 27.615C277.455 27.0083 278.516 26.705 279.636 26.705C280.756 26.705 281.655 26.9383 282.331 27.405C283.031 27.8717 283.381 28.56 283.381 29.47ZM276.556 56.875C275.11 56.875 274.06 56.5133 273.406 55.79C272.753 55.0667 272.426 53.97 272.426 52.5C272.426 51.0067 273.173 47.0283 274.666 40.565L272.706 37.625C275.623 35.875 277.921 35 279.601 35C280.558 35 281.235 35.21 281.631 35.63C282.028 36.0267 282.226 36.68 282.226 37.59C282.226 37.94 281.795 39.9933 280.931 43.75C280.068 47.5067 279.636 50.19 279.636 51.8C279.636 53.41 279.998 54.53 280.721 55.16C279.415 56.3033 278.026 56.875 276.556 56.875ZM295.306 56.875C292.109 56.875 289.636 56.0467 287.886 54.39C286.159 52.7333 285.296 50.4933 285.296 47.67C285.296 43.9133 286.579 40.8683 289.146 38.535C291.736 36.1783 294.979 35 298.876 35C301.046 35 302.691 35.49 303.811 36.47C304.931 37.4267 305.491 38.6983 305.491 40.285C305.491 42.455 304.429 44.2633 302.306 45.71C300.206 47.1333 296.951 47.8567 292.541 47.88C292.611 49.3733 292.949 50.5517 293.556 51.415C294.162 52.255 294.921 52.675 295.831 52.675C296.741 52.675 297.522 52.3717 298.176 51.765C298.852 51.1583 299.191 50.1667 299.191 48.79C302.597 48.79 304.301 49.595 304.301 51.205C304.301 52.5817 303.461 53.8767 301.781 55.09C300.101 56.28 297.942 56.875 295.306 56.875ZM298.281 39.095C297.091 39.095 295.994 39.69 294.991 40.88C294.011 42.07 293.299 43.47 292.856 45.08C295.189 44.8933 296.939 44.3683 298.106 43.505C299.296 42.6183 299.891 41.685 299.891 40.705C299.891 40.2383 299.739 39.8533 299.436 39.55C299.156 39.2467 298.771 39.095 298.281 39.095ZM312.674 56.875C311.297 56.875 310.282 56.5133 309.629 55.79C308.975 55.0667 308.649 54.11 308.649 52.92C308.649 51.73 308.882 49.7933 309.349 47.11C309.839 44.4267 310.34 41.9767 310.854 39.76L309.034 36.96C311.344 35.6533 313.479 35 315.439 35C317.399 35 318.379 35.8867 318.379 37.66C318.379 38.8267 318.11 40.0167 317.574 41.23L317.924 41.405C320.42 37.135 323.594 35 327.444 35C330.267 35 331.679 36.4117 331.679 39.235C331.679 40.4483 331.329 42.5017 330.629 45.395C329.952 48.2883 329.614 50.47 329.614 51.94C329.614 53.41 329.859 54.4833 330.349 55.16C329.112 56.3033 327.805 56.875 326.429 56.875C323.745 56.875 322.404 55.4283 322.404 52.535C322.404 51.4617 322.754 49.6417 323.454 47.075C324.154 44.5083 324.504 42.84 324.504 42.07C324.504 41.02 324.107 40.495 323.314 40.495C322.66 40.495 321.914 40.7867 321.074 41.37C320.234 41.93 319.417 42.7 318.624 43.68C317.854 44.6367 317.2 45.8617 316.664 47.355C316.127 48.825 315.859 50.33 315.859 51.87C315.859 53.3867 316.104 54.4833 316.594 55.16C315.357 56.3033 314.05 56.875 312.674 56.875ZM348.367 53.445L348.017 53.27C346.197 55.6733 344.027 56.875 341.507 56.875C339.64 56.875 338.054 56.14 336.747 54.67C335.464 53.1767 334.822 51.17 334.822 48.65C334.822 45.5233 335.919 42.6767 338.112 40.11C339.185 38.85 340.62 37.835 342.417 37.065C344.214 36.2717 346.22 35.875 348.437 35.875C348.857 35.875 349.604 35.9217 350.677 36.015C350.724 35.525 350.829 34.93 350.992 34.23L349.032 31.43C351.949 29.7267 354.247 28.875 355.927 28.875C356.884 28.875 357.56 29.0733 357.957 29.47C358.354 29.8433 358.552 30.5667 358.552 31.64C358.552 32.69 358.027 35.6767 356.977 40.6C355.95 45.5233 355.437 49.0233 355.437 51.1C355.437 53.1533 355.799 54.5067 356.522 55.16C355.215 56.3033 353.85 56.875 352.427 56.875C351.027 56.875 350 56.525 349.347 55.825C348.694 55.1017 348.367 54.3083 348.367 53.445ZM341.402 47.32C341.402 48.65 341.74 49.7 342.417 50.47C343.117 51.24 343.98 51.625 345.007 51.625C346.337 51.625 347.55 50.995 348.647 49.735C349.02 45.5817 349.545 41.9883 350.222 38.955C347.539 38.955 345.392 39.8183 343.782 41.545C342.195 43.2717 341.402 45.1967 341.402 47.32Z" fill="white"/>
</svg>
